<?xml version="1.0" encoding="UTF-8"?>
<!DOCTYPE svg PUBLIC "-//W3C//DTD SVG 1.1//EN" "http://www.w3.org/Graphics/SVG/1.1/DTD/svg11.dtd">
<svg version="1.1" xmlns="http://www.w3.org/2000/svg" xmlns:xlink="http://www.w3.org/1999/xlink" x="0" y="0" width="1000" height="575" viewBox="0, 0, 1000, 575">
  <g id="Background">
    <rect x="0" y="0" width="1000" height="575" fill="#000000" fill-opacity="0"/>
  </g>
  <g id="Layer_1">
    <text transform="matrix(1, 0, 0, 1, 85.5, 235.5)">
      <tspan x="-83.25" y="193" font-family="LucidaGrande" font-size="512" fill="#000000">{</tspan>
    </text>
    <text transform="matrix(1, 0, 0, 1, 916.75, 235.5)">
      <tspan x="-83.25" y="193" font-family="LucidaGrande" font-size="512" fill="#000000">}</tspan>
    </text>
    <path d="M301.5,450 C214.791,450 144.5,382.843 144.5,300 C144.5,217.157 214.791,150 301.5,150 C388.209,150 458.5,217.157 458.5,300 C458.5,382.843 388.209,450 301.5,450 z" fill-opacity="0" stroke="#000000" stroke-width="27"/>
    <path d="M698.5,450 C611.791,450 541.5,382.843 541.5,300 C541.5,217.157 611.791,150 698.5,150 C785.209,150 855.5,217.157 855.5,300 C855.5,382.843 785.209,450 698.5,450 z" fill-opacity="0" stroke="#000000" stroke-width="27"/>
    <path d="M150.025,125.5 L850.475,125.5 C857.116,125.5 862.5,130.873 862.5,137.5 L862.5,146.5 C862.5,153.127 857.116,158.5 850.475,158.5 L150.025,158.5 C143.384,158.5 138,153.127 138,146.5 L138,137.5 C138,130.873 143.384,125.5 150.025,125.5 z" fill="#000000"/>
    <path d="M423.297,190.5 L576.536,190.5 C577.989,190.5 579.167,195.004 579.167,200.561 L579.167,208.106 C579.167,213.662 577.989,218.167 576.536,218.167 L423.297,218.167 C421.844,218.167 420.667,213.662 420.667,208.106 L420.667,200.561 C420.667,195.004 421.844,190.5 423.297,190.5 z" fill="#000000"/>
    <path d="M137.692,185.167 L140.308,185.167 C148.974,185.167 156,195.307 156,207.817 L156,263.183 C156,275.693 148.974,285.833 140.308,285.833 L137.692,285.833 C129.026,285.833 122,275.693 122,263.183 L122,207.817 C122,195.307 129.026,185.167 137.692,185.167 z" fill="#000000"/>
    <path d="M859.692,185.167 L862.308,185.167 C870.974,185.167 878,195.307 878,207.817 L878,263.183 C878,275.693 870.974,285.833 862.308,285.833 L859.692,285.833 C851.026,285.833 844,275.693 844,263.183 L844,207.817 C844,195.307 851.026,185.167 859.692,185.167 z" fill="#000000"/>
  </g>
</svg>
