<?xml version="1.0" encoding="UTF-8" standalone="no"?>
<!-- Generator: Adobe Illustrator 17.0.0, SVG Export Plug-In . SVG Version: 6.00 Build 0)  -->

<svg
   xmlns:dc="http://purl.org/dc/elements/1.1/"
   xmlns:cc="http://creativecommons.org/ns#"
   xmlns:rdf="http://www.w3.org/1999/02/22-rdf-syntax-ns#"
   xmlns:svg="http://www.w3.org/2000/svg"
   xmlns="http://www.w3.org/2000/svg"
   xmlns:sodipodi="http://sodipodi.sourceforge.net/DTD/sodipodi-0.dtd"
   xmlns:inkscape="http://www.inkscape.org/namespaces/inkscape"
   version="1.1"
   id="Layer_1"
   x="0px"
   y="0px"
   width="12.063736"
   height="12"
   viewBox="0 0 12.063736 12"
   enable-background="new 0 0 100 100"
   xml:space="preserve"
   inkscape:version="0.48.2 r9819"
   sodipodi:docname="save.svg"><metadata
   id="metadata13"><rdf:RDF><cc:Work
       rdf:about=""><dc:format>image/svg+xml</dc:format><dc:type
         rdf:resource="http://purl.org/dc/dcmitype/StillImage" /></cc:Work></rdf:RDF></metadata><defs
   id="defs11" /><sodipodi:namedview
   pagecolor="#ffffff"
   bordercolor="#666666"
   borderopacity="1"
   objecttolerance="10"
   gridtolerance="10"
   guidetolerance="10"
   inkscape:pageopacity="0"
   inkscape:pageshadow="2"
   inkscape:window-width="1125"
   inkscape:window-height="718"
   id="namedview9"
   showgrid="false"
   fit-margin-top="0"
   fit-margin-left="0"
   fit-margin-right="0"
   fit-margin-bottom="0"
   inkscape:zoom="9.44"
   inkscape:cx="-8.970576"
   inkscape:cy="2.9096948"
   inkscape:window-x="0"
   inkscape:window-y="0"
   inkscape:window-maximized="0"
   inkscape:current-layer="Layer_1" />
<g
   id="g3"
   transform="matrix(0.16300804,0,0,0.16300804,-2.1184524,-2.1504021)"
   style="fill:#cccccc;fill-opacity:1">
	<rect
   x="52.872002"
   y="17.025999"
   width="10.352"
   height="21.471001"
   id="rect5"
   style="fill:#cccccc;fill-opacity:1" />
	<path
   d="m 86.217,19.195 0.006,-0.006 -5.211,-5.212 c -0.437,-0.479 -1.06,-0.785 -1.76,-0.785 -0.014,0 -0.026,0.004 -0.04,0.004 h -8.91 c -0.013,0 -0.025,0 -0.038,0 h -0.139 v 0.024 c -0.286,0.029 -0.564,0.128 -0.779,0.344 -0.215,0.215 -0.315,0.493 -0.343,0.779 h -0.028 v 25.306 h -0.009 c -0.047,1.277 -1.089,2.3 -2.378,2.3 H 66.291 32.135 V 41.937 C 30.901,41.875 29.92,40.887 29.876,39.649 H 29.867 V 14.343 h -0.048 c -0.051,-0.266 -0.158,-0.526 -0.367,-0.735 -0.311,-0.311 -0.724,-0.427 -1.119,-0.387 v -0.028 h -12.95 v 0 l -10e-4,0 c -1.318,0 -2.387,1.068 -2.386,2.388 l 0,0 v 26.368 9.585 32.887 l 0,10e-4 c -0.001,1.319 1.067,2.386 2.387,2.386 h 0 7.57 v -2.387 h 0 V 53.889 l 0,-0.001 c 0,0 0,-10e-4 0,-10e-4 v -0.053 -0.033 h 0.009 c 0.041,-1.122 0.851,-2.046 1.92,-2.255 v -0.013 h 0.132 c 0.108,-0.015 0.215,-0.032 0.326,-0.032 h 0.001 49.299 0.001 0 0.086 v 0.009 c 1.249,0.045 2.247,1.042 2.292,2.291 h 0.009 v 33.007 h 7.581 0 c 1.319,0 2.387,-1.068 2.387,-2.386 l 0,-10e-4 h 0 V 21.029 c 0.001,-0.025 0.007,-0.048 0.007,-0.073 0,-0.701 -0.306,-1.325 -0.786,-1.761 z"
   id="path7"
   inkscape:connector-curvature="0"
   style="fill:#cccccc;fill-opacity:1" />
</g>
<rect
   style="fill:#cccccc;fill-rule:evenodd;stroke:#cccccc;stroke-width:1px;stroke-linecap:butt;stroke-linejoin:miter;stroke-opacity:1;fill-opacity:1"
   id="rect2990"
   width="10.593221"
   height="0.10593221"
   x="0.74152541"
   y="11.470339" /></svg>